<svg class="icon line" width="64" height="64" id="agenda-pencil-left" xmlns="http://www.w3.org/2000/svg" viewBox="0 0 24 24"><title style="stroke-width: 1.5; stroke: rgb(0, 0, 0);">agenda pencil left</title><path id="primary" d="M9,3H19a1,1,0,0,1,1,1V20a1,1,0,0,1-1,1H7a1,1,0,0,1-1-1V18M3.29,9.09,8.2,14H11V11.2L6.09,6.29a1,1,0,0,0-1.4,0l-1.4,1.4A1,1,0,0,0,3.29,9.09ZM19,8h2m-2,4h2m-2,4h2" style="fill: none; stroke: rgb(0, 0, 0); stroke-linecap: round; stroke-linejoin: round; stroke-width: 1.5;"></path></svg>