<svg class="icon line" width="64" height="64" id="note-question" xmlns="http://www.w3.org/2000/svg" viewBox="0 0 24 24"><line x1="12" y1="17" x2="12" y2="17" style="fill: none; stroke: rgb(0, 0, 0); stroke-linecap: round; stroke-linejoin: round; stroke-width: 1.5;"></line><path d="M18,4a1,1,0,0,1,1,1V20a1,1,0,0,1-1,1H6a1,1,0,0,1-1-1V5A1,1,0,0,1,6,4" style="fill: none; stroke: rgb(0, 0, 0); stroke-linecap: round; stroke-linejoin: round; stroke-width: 1.5;"></path><rect x="9" y="3" width="6" height="3" rx="1" style="fill: none; stroke: rgb(0, 0, 0); stroke-linecap: round; stroke-linejoin: round; stroke-width: 1.5;"></rect><path d="M11,10h1.5A1.5,1.5,0,0,1,14,11.5h0A1.5,1.5,0,0,1,12.5,13h0a.5.5,0,0,0-.5.5V14" style="fill: none; stroke: rgb(0, 0, 0); stroke-linecap: round; stroke-linejoin: round; stroke-width: 1.5;"></path></svg>