<svg class="icon line" width="64" height="64" id="conversation-alt2" xmlns="http://www.w3.org/2000/svg" viewBox="0 0 24 24"><path d="M17,18H10a1,1,0,0,1-1-1V9a1,1,0,0,1,1-1H20a1,1,0,0,1,1,1V21l-4-3" style="fill: none; stroke: rgb(0, 0, 0); stroke-linecap: round; stroke-linejoin: round; stroke-width: 1.5;"></path><path d="M9,15a7,7,0,0,1-1.45-.25L4,16l.27-3.44A5.63,5.63,0,0,1,3,9,6.27,6.27,0,0,1,9.5,3a6.37,6.37,0,0,1,6.41,5" style="fill: none; stroke: rgb(0, 0, 0); stroke-linecap: round; stroke-linejoin: round; stroke-width: 1.5;"></path></svg>