<svg class="icon line" width="64" height="64" id="clipboard-checklist-6" xmlns="http://www.w3.org/2000/svg" viewBox="0 0 24 24"><title style="stroke-width: 1.5; stroke: rgb(0, 0, 0);">clipboard checklist-6</title><path id="primary" d="M14,6h3a1,1,0,0,1,1,1v7M8,6H5A1,1,0,0,0,4,7V20a1,1,0,0,0,1,1h6M13,5h0a2,2,0,0,0-2-2h0A2,2,0,0,0,9,5H9A1,1,0,0,0,8,6V8h6V6A1,1,0,0,0,13,5Zm1,14,2,2,4-4M8,17h3M8,13h6" style="fill: none; stroke: rgb(0, 0, 0); stroke-linecap: round; stroke-linejoin: round; stroke-width: 1.5;"></path></svg>