<svg class="icon line" width="64" height="64" id="bookmark-alt" xmlns="http://www.w3.org/2000/svg" viewBox="0 0 24 24"><path d="M7,3H19a0,0,0,0,1,0,0V7a0,0,0,0,1,0,0H7A2,2,0,0,1,5,5V5A2,2,0,0,1,7,3Z" style="fill: none; stroke: rgb(0, 0, 0); stroke-linecap: round; stroke-linejoin: round; stroke-width: 1.5;"></path><path d="M19,7V20a1,1,0,0,1-1,1H7a2,2,0,0,1-2-2V5" style="fill: none; stroke: rgb(0, 0, 0); stroke-linecap: round; stroke-linejoin: round; stroke-width: 1.5;"></path><polygon points="15 15 12 13 9 15 9 7 15 7 15 15" style="fill: none; stroke: rgb(0, 0, 0); stroke-linecap: round; stroke-linejoin: round; stroke-width: 1.5;"></polygon></svg>