<svg xmlns="http://www.w3.org/2000/svg" width="64" height="64" viewBox="0 0 64 64">
  <g fill="none" fill-rule="evenodd">
    <path fill="#5B68C0" d="M6,7 L58,7 L58,55.0059907 C58,57.2118211 56.2100423,59 54.0059907,59 L9.99400932,59 C7.78817888,59 6,57.2100423 6,55.0059907 L6,7 Z"/>
    <rect width="52" height="14" x="6" y="7" fill="#F5413E"/>
    <rect width="5" height="11" x="15" y="3" fill="#B4DFFB" rx="2"/>
    <rect width="5" height="11" x="30" y="3" fill="#B4DFFB" rx="2"/>
    <rect width="5" height="11" x="45" y="3" fill="#B4DFFB" rx="2"/>
    <path fill="#FFDD95" d="M28.28,47.2103227 C28.1066658,47.6103247 27.6666702,47.8103227 26.96,47.8103227 C26.29333,47.8103227 25.6866694,47.6503243 25.14,47.3303227 C24.539997,46.9703209 24.2799996,46.5436585 24.36,46.0503227 C24.4000002,45.8503217 24.5466654,45.620324 24.8,45.3603227 C25.0533346,45.1003214 25.1733334,44.8769903 25.16,44.6903227 L24.8,35.8103227 C24.7866666,35.5036545 24.4866696,35.1969909 23.9,34.8903227 C23.3133304,34.5836545 23.0133334,34.2103249 23,33.7703227 C23.400002,32.9303185 23.8599974,32.2636585 24.38,31.7703227 C24.8600024,31.3036537 25.3066646,31.0503229 25.72,31.0103227 C26.2800028,30.9569891 26.7866644,31.1103209 27.24,31.4703227 C27.6933356,31.8303245 27.9066668,32.2769867 27.88,32.8103227 C27.88,32.9569901 27.8066674,33.133655 27.66,33.3403227 C27.5133326,33.5469904 27.44,33.7303219 27.44,33.8903227 L27.76,44.4503227 C27.7733334,44.7436575 27.8933322,45.0736542 28.12,45.4403227 C28.3466678,45.8069912 28.46,46.1236547 28.46,46.3903227 C28.46,46.6303239 28.4000006,46.9036545 28.28,47.2103227 Z M42.68,44.8703227 C42.8933344,45.1636575 43,45.4503213 43,45.7303227 C43,46.1169913 42.8066686,46.4436547 42.42,46.7103227 C42.0333314,46.9769907 41.640002,47.1103227 41.24,47.1103227 C41.0533324,47.1103227 40.7733352,47.0703231 40.4,46.9903227 C40.0799984,46.9103223 39.8600006,46.8769893 39.74,46.8903227 C39.1266636,46.8369891 38.2400058,46.9369881 37.08,47.1903227 C35.5999926,47.5103243 34.8066672,47.6769893 34.7,47.6903227 C34.3399982,47.7303229 33.9066692,47.6436571 33.4,47.4303227 C32.799997,47.1769881 32.4933334,46.8569913 32.48,46.4703227 C32.4666666,46.1903213 32.626665,45.9569903 32.96,45.7703227 C33.360002,45.5436549 33.5999996,45.3503235 33.68,45.1903227 C34.6400048,44.1636509 35.753327,42.7503317 37.02,40.9503227 C38.953343,38.1903089 39.92,36.1636625 39.92,34.8703227 C39.92,34.3903203 39.7800014,34.0169907 39.5,33.7503227 C39.4733332,33.7369893 39.4400002,33.7303227 39.4,33.7303227 C39.1866656,33.7303227 38.780003,33.9836535 38.18,34.4903227 C37.646664,34.9436583 37.3200006,35.2569885 37.2,35.4303227 C37.0533326,35.5369899 36.9266672,35.7969873 36.82,36.2103227 C36.7266662,36.5703245 36.5200016,36.8169887 36.2,36.9503227 C36.1066662,36.9903229 35.993334,37.0103227 35.86,37.0103227 C35.459998,37.0103227 35.0466688,36.8569909 34.62,36.5503227 C34.153331,36.2036543 33.8933336,35.8169915 33.84,35.3903227 C33.8133332,35.1769883 34.0133312,34.8569915 34.44,34.4303227 C34.8666688,34.0036539 35.3333308,33.6436575 35.84,33.3503227 C37.3466742,31.8169817 38.6266614,31.0569893 39.68,31.0703227 C41.6400098,31.1103229 42.62,32.1236461 42.62,34.1103227 C42.62,35.6969973 42.0266726,37.5969783 40.84,39.8103227 C39.7199944,41.9169999 38.4666736,43.5903165 37.08,44.8303227 C37.4533352,44.7769891 38.5466576,44.5636579 40.36,44.1903227 C40.9733364,44.0703221 41.2666668,44.0103227 41.24,44.0103227 C41.773336,44.0103227 42.2533312,44.2969865 42.68,44.8703227 Z"/>
  </g>
</svg>
