<svg class="icon line" width="64" height="64" id="discussion" xmlns="http://www.w3.org/2000/svg" viewBox="0 0 24 24"><title style="stroke-width: 1.5; stroke: rgb(0, 0, 0);">discussion</title><path id="primary" d="M15,6h5a1,1,0,0,1,1,1v3a1,1,0,0,1-1,1H16l-4,2V11a1,1,0,0,1-1-1V8M6,13a2,2,0,1,0,2,2A2,2,0,0,0,6,13Zm3,7a3,3,0,0,0-3-3H6a3,3,0,0,0-3,3v1H9ZM15,7V4a1,1,0,0,0-1-1H4A1,1,0,0,0,3,4V7A1,1,0,0,0,4,8H14A1,1,0,0,0,15,7Z" style="fill: none; stroke: rgb(0, 0, 0); stroke-linecap: round; stroke-linejoin: round; stroke-width: 1.5;"></path></svg>