<svg class="icon line" width="64" height="64" id="clipboard-edit-3" xmlns="http://www.w3.org/2000/svg" viewBox="0 0 24 24"><title style="stroke-width: 1.5; stroke: rgb(0, 0, 0);">clipboard edit-3</title><path id="primary" d="M17,16v4a1,1,0,0,1-1,1H4a1,1,0,0,1-1-1V7A1,1,0,0,1,4,6H7m6,0h3a1,1,0,0,1,1,1v3M12,5h0a2,2,0,0,0-2-2h0A2,2,0,0,0,8,5H8A1,1,0,0,0,7,6V8h6V6A1,1,0,0,0,12,5Zm8.71,5.69-1.4-1.4a1,1,0,0,0-1.4,0L13,14.2V17h2.8l4.91-4.91A1,1,0,0,0,20.71,10.69Z" style="fill: none; stroke: rgb(0, 0, 0); stroke-linecap: round; stroke-linejoin: round; stroke-width: 1.5;"></path></svg>