<svg xmlns="http://www.w3.org/2000/svg" xmlns:xlink="http://www.w3.org/1999/xlink" aria-hidden="true" role="img" width="3em" height="3em" preserveAspectRatio="xMidYMid meet" viewBox="0 0 256 256"><path d="M32 208l30.177-90.53a8 8 0 0 1 7.59-5.47H208V88a8 8 0 0 0-8-8h-69.333a8 8 0 0 1-4.8-1.6L98.133 57.6a8 8 0 0 0-4.8-1.6H40a8 8 0 0 0-8 8z" opacity=".2" fill="currentColor"/><path d="M241.88 110.645A16.04 16.04 0 0 0 228.9 104H216V88a16.018 16.018 0 0 0-16-16h-69.333l-27.733-20.8a16.103 16.103 0 0 0-9.601-3.2H40a16.018 16.018 0 0 0-16 16v144c0 .051.007.1.008.151c.002.113.01.224.016.337c.012.19.029.379.053.566q.02.152.047.303c.035.205.078.406.128.605c.021.083.04.166.064.248c.069.239.149.472.238.701c.017.042.03.086.047.128a7.867 7.867 0 0 0 .39.816c.016.029.035.056.051.084q.192.34.416.656c.019.027.033.056.052.083c.035.049.077.09.114.139a7.891 7.891 0 0 0 1.034 1.126c.064.057.125.118.19.173a7.947 7.947 0 0 0 .696.528l.02.012a7.968 7.968 0 0 0 .736.433c.064.033.13.062.195.094a7.96 7.96 0 0 0 .85.356q.302.106.614.188c.084.023.168.046.252.065c.214.049.432.086.652.118c.08.011.157.027.237.036a8.062 8.062 0 0 0 .9.054h176a8.001 8.001 0 0 0 7.59-5.47l28.49-85.47a16.039 16.039 0 0 0-2.2-14.415zM93.333 64l27.733 20.8a16.103 16.103 0 0 0 9.601 3.2H200v16H69.766a15.98 15.98 0 0 0-15.18 10.94L40 158.702V64zm108.9 136H43.1l26.666-80H228.9z" fill="currentColor"/></svg>